<?xml version="1.0" encoding="utf-8"?>
<!-- Generator: Adobe Illustrator 19.2.1, SVG Export Plug-In . SVG Version: 6.00 Build 0)  -->
<svg version="1.1" id="Layer_1" xmlns="http://www.w3.org/2000/svg" xmlns:xlink="http://www.w3.org/1999/xlink" x="0px" y="0px"
	 viewBox="-38 -38 100 100" enable-background="new -38 -38 100 100" xml:space="preserve">
<g>
	<g>
		<path d="M56.085-29h-88.169C-35.324-29-38-26.324-38-23.085v55.352c0,3.239,2.676,5.916,5.916,5.916H2.704
			c0.563,0,0.986,0.422,0.986,0.986v6.197c0,0.563-0.422,0.986-0.845,0.986c-10.282,0.986-17.606-2.394-17.606,0.282
			c0,3.38,11.972,6.197,26.761,6.197c14.789,0,26.761-2.817,26.761-6.197c0-2.676-7.324,0.704-17.606-0.282
			c-0.563,0-0.845-0.423-0.845-0.986v-6.197c0-0.563,0.423-0.986,0.986-0.986h34.789c3.239,0,5.915-2.676,5.915-5.916v-55.211
			C62-26.324,59.324-29,56.085-29z M58.009,30.376h-0.15c0,1.504-1.203,2.707-2.707,2.707h-86.314c-1.504,0-2.707-1.203-2.707-2.707
			v-51.428c0-1.504,1.203-2.707,2.707-2.707h86.464c1.504,0,2.707,1.203,2.707,2.707V30.376z"/>
	</g>
</g>
<path d="M39.549-12.192c-0.988,0-1.976,0.494-2.593,1.358c-1.111,1.235-1.111,2.223-0.864,3.087c0,0.123,0,0.247-0.123,0.37
	L18.431,9.913c-0.123,0-0.247,0.123-0.494,0c-0.37-0.123-0.617-0.123-0.988-0.123c-0.494,0-0.988,0.123-1.482,0.37
	c-0.123,0.123-0.37,0-0.494-0.123L5.711,1.145c-0.123-0.123-0.123-0.247-0.247-0.37C5.341-0.955,3.982-2.313,2.254-2.436
	c-0.617,0-1.235,0.123-1.729,0.494c-2.099,1.482-2.346,2.47-2.223,3.458c0,0.247,0,0.37-0.123,0.617l-12.596,13.09
	c-0.123,0.123-0.37,0.247-0.617,0.247c-0.864-0.123-1.852,0-3.087,1.235c-0.617,0.617-0.988,1.482-0.988,2.223
	c0,2.223,1.976,3.952,4.322,3.581c0.988-0.123,1.976-0.864,2.47-1.852c0.617-0.988,0.617-1.852,0.37-2.717
	c0-0.123,0-0.37,0.123-0.494L0.525,4.479c0.123-0.123,0.247-0.123,0.37-0.123c0.37,0.123,0.741,0.247,1.235,0.247
	c0.617,0,1.235-0.123,1.729-0.494c0.123-0.123,0.247,0,0.37,0l9.139,8.768c0.123,0.123,0.123,0.247,0.123,0.37
	c0,0.37,0.123,1.358,0.37,1.729c0.617,1.111,1.729,1.852,2.964,1.976c1.235,0.123,2.346-0.617,3.087-1.482
	c0.741-0.988,0.864-1.852,0.741-2.593c0-0.123,0-0.37,0.123-0.37l17.66-17.413c0.123-0.123,0.247-0.123,0.37-0.123
	c0.864,0.247,1.729,0.123,2.84-0.617c0.988-0.741,1.729-1.852,1.605-3.211C43.007-10.711,41.525-12.192,39.549-12.192z"/>
</svg>
