<?xml version="1.0" encoding="utf-8"?>
<!-- Generator: Adobe Illustrator 19.2.1, SVG Export Plug-In . SVG Version: 6.00 Build 0)  -->
<svg version="1.1" id="Layer_1" xmlns="http://www.w3.org/2000/svg" xmlns:xlink="http://www.w3.org/1999/xlink" x="0px" y="0px"
	 viewBox="-38 -38 100 100" enable-background="new -38 -38 100 100" xml:space="preserve">
<path d="M-1.898,54.28c-7.263-0.269-10.894-0.403-18.291-0.941c-0.941,0-1.614-0.807-1.748-1.748
	c-1.479-26.495-1.479-53.125,0-79.621c0-0.941,0.807-1.614,1.748-1.748c21.654-1.614,43.442-1.614,65.095,0
	c0.941,0.134,1.614,0.807,1.748,1.748c0.807,13.449,1.21,27.033,1.076,40.483c0,0,0,1.076,0.672,2.017
	c2.017,2.017,3.093,2.959,5.111,4.976c1.883,1.748,1.614-1.076,1.614-1.076c0.269-17.081-0.403-34.296-1.748-51.377
	c-0.134-1.748-1.614-3.362-3.228-3.497c-25.823-2.017-50.704-2.017-76.527,0.134c-1.614,0.134-2.959,1.748-3.093,3.497
	c-2.017,29.858-2.017,59.312-0.134,89.304c0.134,1.748,1.614,3.362,3.228,3.497c12.239,1.345,18.291,1.748,30.53,2.017
	c0,0,3.497,0.134,1.479-2.017c-1.748-1.748-2.555-2.69-4.304-4.438C1.464,55.491,0.388,54.415-1.898,54.28z"/>
<path d="M16.3,50.881c-0.588-0.588-0.588-1.665,0-2.253c1.567-1.567,2.253-2.351,3.82-3.918c0.588-0.588,1.567-0.588,2.155,0
	c2.547,2.547,3.82,3.82,6.269,6.367c0.588,0.588,1.567,0.588,2.155,0c0,0,14.497-15.575,17.632-17.73
	c0.686-0.49,1.665-0.588,2.253-0.098c1.567,1.469,2.351,2.155,3.82,3.624c0.588,0.588,0.588,1.469-0.098,2.155
	c-7.249,7.151-14.399,14.399-21.354,21.746c-1.861,1.567-5.29,1.665-6.857,0.098C22.275,56.954,20.316,54.897,16.3,50.881z"/>
<path d="M36.636-10.7c0,0.849-0.606,1.455-1.455,1.455C19.9-9.73,4.497-9.73-10.784-9.245c-0.849,0-1.455-0.606-1.455-1.455
	c0-1.213,0-1.819,0.121-2.911c0-0.849,0.728-1.455,1.577-1.577c15.16-0.606,30.441-0.606,45.601,0c0.849,0,1.455,0.728,1.577,1.577
	C36.636-12.398,36.636-11.792,36.636-10.7z"/>
<path d="M36.879,3.247c0,0.849-0.606,1.455-1.455,1.455c-15.524-0.121-30.926-0.121-46.45,0c-0.849,0-1.455-0.606-1.455-1.455
	c0-1.213,0-1.819,0-2.911c0-0.849,0.728-1.455,1.455-1.455c15.403-0.364,30.805-0.364,46.329,0c0.849,0,1.455,0.728,1.455,1.455
	C36.879,1.549,36.879,2.155,36.879,3.247z"/>
<path d="M37,17.194c0,0.849-0.728,1.455-1.455,1.455c-15.524,0.121-30.926,0.121-46.45,0c-0.849,0-1.455-0.728-1.455-1.455
	c0-1.213,0-1.819,0-2.911c0-0.849,0.728-1.455,1.455-1.455c15.524,0,31.048,0,46.45,0c0.849,0,1.455,0.606,1.455,1.455
	C37,15.496,37,16.102,37,17.194z"/>
</svg>
