<?xml version="1.0" encoding="utf-8"?>
<!-- Generator: Adobe Illustrator 19.2.1, SVG Export Plug-In . SVG Version: 6.00 Build 0)  -->
<svg version="1.1" id="Layer_1" xmlns="http://www.w3.org/2000/svg" xmlns:xlink="http://www.w3.org/1999/xlink" x="0px" y="0px"
	 viewBox="-38 -38 100 100" enable-background="new -38 -38 100 100" xml:space="preserve">
<g>
	<path d="M2.747,61c-0.448,0-0.899-0.079-1.333-0.249c-1.427-0.55-2.365-1.924-2.365-3.451V10.439l-36.162-42.336
		c-0.937-1.099-1.151-2.642-0.548-3.951C-37.056-37.159-35.743-38-34.3-38h92.646c1.447,0,2.758,0.84,3.362,2.152
		c0.602,1.31,0.391,2.853-0.545,3.951L24.998,10.439v26.451c0,0.922-0.343,1.807-0.963,2.491L5.484,59.789
		C4.771,60.577,3.77,61,2.747,61z M-26.273-30.599L5.56,6.67c0.572,0.67,0.887,1.521,0.887,2.402v38.653l11.151-12.267V9.074
		c0-0.882,0.314-1.733,0.888-2.402l31.835-37.27h-76.594V-30.599z"/>
</g>
</svg>
