<?xml version="1.0" encoding="utf-8"?>
<!-- Generator: Adobe Illustrator 19.2.1, SVG Export Plug-In . SVG Version: 6.00 Build 0)  -->
<svg version="1.1" id="Layer_1" xmlns="http://www.w3.org/2000/svg" xmlns:xlink="http://www.w3.org/1999/xlink" x="0px" y="0px"
	 viewBox="-38 -38 100 100" enable-background="new -38 -38 100 100" xml:space="preserve">
<ellipse transform="matrix(0.3408 -0.9401 0.9401 0.3408 50.1732 17.2714)" cx="37.403" cy="-27.144" rx="10.2" ry="10.199"/>
<path d="M-5.852,29.704l-18.196-1.331c-3.08-0.201-5.742,2.137-5.94,5.219c-0.201,3.086,2.137,5.746,5.221,5.944l20.129,1.476
	c0.31,0.02,0.614-0.004,0.91-0.031c1.866,0.179,3.777-0.561,4.998-2.164l9.464-12.399l-8.419-7.41L-5.852,29.704z"/>
<path d="M54.011-0.284c-0.517-2.636-3.076-4.353-5.711-3.834L36.584-1.857L32.837-8.51c0.584-3.308-0.733-6.812-3.678-8.853
	c-2.181-1.509-4.799-1.9-7.189-1.309L9.218-23.108c-0.413-0.142-0.83-0.206-1.244-0.235c-1.116-0.28-2.329-0.185-3.428,0.389
	l-13.601,7.053c-2.38,1.241-3.301,4.184-2.06,6.565c1.244,2.38,4.182,3.3,6.567,2.06l11.908-6.176l6.631,2.311L3.024,4.35
	C2.57,5.004,1.756,6.581,1.661,6.684c-2.125,2.247-2.023,5.787,0.224,7.908l0.906,0.854l8.172,7.736l12.443,11.774l4.291,22.493
	c0.625,3.029,3.584,4.973,6.612,4.341c3.024-0.631,4.968-3.59,4.337-6.62L34.15,31.571c-0.203-0.963-0.657-1.8-1.255-2.492
	c-0.291-0.62-0.689-1.201-1.216-1.699l-13.9-13.148l9.3-13.136l2.303,4.087c0.191,0.334,0.421,0.627,0.67,0.899
	c1.03,1.69,3.022,2.654,5.08,2.255l15.039-2.912C52.81,4.906,54.526,2.352,54.011-0.284z"/>
</svg>
