<?xml version="1.0" encoding="utf-8"?>
<!-- Generator: Adobe Illustrator 19.2.1, SVG Export Plug-In . SVG Version: 6.00 Build 0)  -->
<svg version="1.1" id="Layer_1" xmlns="http://www.w3.org/2000/svg" xmlns:xlink="http://www.w3.org/1999/xlink" x="0px" y="0px"
	 viewBox="-38 -38 100 100" enable-background="new -38 -38 100 100" xml:space="preserve">
<g transform="translate(0,-972.3622)">
	<path d="M11.917,934.362c-27.531,0-49.917,22.385-49.917,49.917c0,27.531,22.385,49.917,49.917,49.917s49.917-22.385,49.917-49.917
		C61.833,956.748,39.448,934.362,11.917,934.362z M12.058,951.928c8.114,0.118,15.975,3.534,21.622,9.676
		c0.307,0.323,0.542,0.709,0.687,1.131c0.383-0.045,0.77-0.073,1.165-0.073c5.477,0,9.983,4.507,9.983,9.983
		c0,5.477-4.507,9.983-9.983,9.983s-9.983-4.507-9.983-9.983c0-2.834,1.211-5.402,3.134-7.227
		c-5.968-6.185-14.809-8.674-23.145-6.457c-8.522,2.267-15.073,9.06-17.027,17.659c-0.343,1.689-1.991,2.779-3.679,2.436
		c-1.689-0.343-2.779-1.991-2.436-3.679c0.009-0.047,0.02-0.093,0.032-0.139c2.465-10.849,10.756-19.447,21.507-22.307
		C6.622,952.217,9.354,951.889,12.058,951.928z M35.532,968.902c-2.105,0-3.744,1.639-3.744,3.744c0,2.104,1.639,3.744,3.744,3.744
		s3.744-1.639,3.744-3.744C39.276,970.541,37.637,968.902,35.532,968.902z M-11.699,985.931c5.477,0,9.983,4.507,9.983,9.983
		c0,2.834-1.213,5.4-3.137,7.224c5.871,6.085,14.532,8.603,22.767,6.559c8.421-2.091,15.017-8.603,17.22-16.996
		c0.41-1.674,2.099-2.699,3.772-2.289c1.674,0.41,2.699,2.099,2.289,3.772c-0.008,0.034-0.017,0.068-0.027,0.101
		c-2.779,10.589-11.126,18.828-21.751,21.466c-2.656,0.66-5.351,0.944-8.014,0.873c-7.989-0.215-15.694-3.627-21.251-9.671
		c-0.313-0.322-0.552-0.708-0.702-1.131c-0.379,0.044-0.761,0.076-1.15,0.076c-5.477,0-9.983-4.507-9.983-9.983
		C-21.682,990.438-17.175,985.931-11.699,985.931z M-11.699,992.171c-2.105,0-3.744,1.639-3.744,3.744
		c0,2.105,1.639,3.744,3.744,3.744s3.744-1.639,3.744-3.744C-7.955,993.81-9.594,992.171-11.699,992.171z"/>
</g>
</svg>
