<?xml version="1.0" encoding="UTF-8" standalone="no"?>
<svg width="54px" height="26px" viewBox="0 0 54 26" version="1.1" xmlns="http://www.w3.org/2000/svg" xmlns:xlink="http://www.w3.org/1999/xlink">
    <!-- Generator: Sketch 39.1 (31720) - http://www.bohemiancoding.com/sketch -->
    <title>Group 6</title>
    <desc>Created with Sketch.</desc>
    <defs></defs>
    <g id="L1" stroke="none" stroke-width="1" fill="none" fill-rule="evenodd">
        <g id="Compliance" transform="translate(-613.000000, -15.000000)">
            <g id="Group-6" transform="translate(613.000000, 15.000000)">
                <path d="M23.2680775,20.9738459 C20.8895379,24.0323263 17.1745563,26 13,26 C5.82029825,26 0,20.1797017 0,13 C0,5.82029825 5.82029825,0 13,0 C17.1447025,0 20.8363799,1.93963119 23.2168433,4.96070474 L12,13.1543391 L23.2680775,20.9738459 Z M25.9009901,14.6123798 C25.9663428,14.0840887 26,13.5459749 26,13 C26,12.4540251 25.9663428,11.9159113 25.9009901,11.3876202 L25.9009901,14.6123798 Z" id="Combined-Shape" fill="#FFFFFF"></path>
                <rect id="Rectangle-16-Copy" fill="#FF009F" x="27" y="11" width="4" height="4"></rect>
                <rect id="Rectangle-16-Copy-2" fill="#FF009F" x="38" y="11" width="4" height="4"></rect>
                <rect id="Rectangle-16-Copy-3" fill="#FF009F" x="50" y="11" width="4" height="4"></rect>
            </g>
        </g>
    </g>
</svg>