<?xml version="1.0" encoding="utf-8"?>
<!-- Generator: Adobe Illustrator 19.2.1, SVG Export Plug-In . SVG Version: 6.00 Build 0)  -->
<svg version="1.1" id="Layer_1" xmlns="http://www.w3.org/2000/svg" xmlns:xlink="http://www.w3.org/1999/xlink" x="0px" y="0px"
	 viewBox="-38 -38 100 100" enable-background="new -38 -38 100 100" xml:space="preserve">
<path d="M60.053,47.613l-9-10.592c-5.342-6.284-7.939-13.349-7.939-21.597V2.679c0-13.717-9.288-25.277-21.899-28.795
	c0.08-0.511,0.137-1.029,0.137-1.562C21.352-33.369,16.721-38,11.028-38C5.336-38,0.707-33.369,0.707-27.678
	c0,0.533,0.056,1.051,0.137,1.562c-12.611,3.519-21.899,15.08-21.899,28.795v12.745c0,8.248-2.597,15.313-7.939,21.597L-38,47.613
	h28.873C-7.112,55.822,1.136,62,11.028,62s18.14-6.178,20.155-14.387H60.053z M6.706-27.678c0-2.383,1.939-4.323,4.322-4.323
	c2.384,0,4.324,1.94,4.324,4.323c0,0.188-0.042,0.363-0.066,0.545c-0.694-0.048-1.386-0.106-2.092-0.106H8.865
	c-0.707,0-1.398,0.058-2.092,0.106C6.749-27.315,6.706-27.49,6.706-27.678z M-24.423,40.907c6.303-7.416,9.367-15.751,9.367-25.483
	V2.68c0-13.191,10.73-23.921,23.921-23.921h4.329c13.191,0,23.921,10.73,23.921,23.921v12.745c0,9.73,3.065,18.067,9.367,25.483
	l0.601,0.707h-72.106L-24.423,40.907z M11.028,56.002c-6.469,0-11.949-3.523-13.89-8.388h27.78
	C22.977,52.478,17.497,56.002,11.028,56.002z"/>
</svg>
