<?xml version="1.0" encoding="utf-8"?>
<!-- Generator: Adobe Illustrator 19.2.1, SVG Export Plug-In . SVG Version: 6.00 Build 0)  -->
<svg version="1.1" id="Layer_1" xmlns="http://www.w3.org/2000/svg" xmlns:xlink="http://www.w3.org/1999/xlink" x="0px" y="0px"
	 viewBox="-38 -38 100 100" enable-background="new -38 -38 100 100" xml:space="preserve">
<g>
	<polygon points="47.476,-4.857 47.476,6 58.333,6 	"/>
</g>
<g>
	<path d="M44.571,8.429V-4.857H12.429V36.19h46.429V8.429H44.571z M19.571,1.286h17.857v3.571H19.571V1.286z M19.571,9.619h17.857
		v3.571H19.571V9.619z M52.905,29.857H19.571v-3.571h33.333V29.857z M52.905,21.524H19.571v-3.571h33.333V21.524z"/>
</g>
<g>
	<path d="M44.571-32.048H30.286c0-3.282-2.67-5.952-5.952-5.952H-6.619c-3.282,0-5.952,2.67-5.952,5.952h-14.286
		c-3.939,0-7.143,3.204-7.143,7.143v79.762C-34,58.796-30.796,62-26.857,62h71.429c3.939,0,7.143-3.204,7.143-7.143v-7.905h-7.143
		v7.905h-71.429v-79.762h14.286c0,3.282,2.67,5.952,5.952,5.952h30.952c3.282,0,5.952-2.67,5.952-5.952h14.286v10.286h7.143v-10.286
		C51.714-28.844,48.511-32.048,44.571-32.048z M23.143-26.095H-5.429v-4.762h28.571V-26.095z"/>
</g>
</svg>
