<?xml version="1.0" encoding="utf-8"?>
<!-- Generator: Adobe Illustrator 19.2.1, SVG Export Plug-In . SVG Version: 6.00 Build 0)  -->
<svg version="1.1" id="Layer_1" xmlns="http://www.w3.org/2000/svg" xmlns:xlink="http://www.w3.org/1999/xlink" x="0px" y="0px"
	 viewBox="-38 -38 100 100" enable-background="new -38 -38 100 100" xml:space="preserve">
<path d="M11.998,61.998C-15.572,61.998-38,39.569-38,11.999C-38-15.57-15.572-38,11.998-38C39.57-38,62-15.57,62,11.999
	C62,39.569,39.57,61.998,11.998,61.998L11.998,61.998z M11.998-27.605c-21.838,0-39.604,17.767-39.604,39.604
	s17.767,39.604,39.604,39.604c21.841,0,39.608-17.767,39.608-39.604S33.838-27.605,11.998-27.605L11.998-27.605z"/>
<path d="M36.512,22.219H2.624v-32.03c0-3.452,2.799-6.25,6.25-6.25s6.252,2.798,6.252,6.25V9.72h21.386
	c3.451,0,6.25,2.799,6.25,6.25C42.762,19.42,39.963,22.219,36.512,22.219z"/>
</svg>
