<?xml version="1.0" encoding="utf-8"?>
<!-- Generator: Adobe Illustrator 19.2.1, SVG Export Plug-In . SVG Version: 6.00 Build 0)  -->
<svg version="1.1" id="Layer_1" xmlns="http://www.w3.org/2000/svg" xmlns:xlink="http://www.w3.org/1999/xlink" x="0px" y="0px"
	 viewBox="-38 -38 100 100" enable-background="new -38 -38 100 100" xml:space="preserve">
<path d="M-10.247-35.872v26.009c0,1.182-0.946,2.128-2.128,2.128h-11.586c-1.892,0-2.837,2.128-1.655,3.547l35.939,34.993
	c0.946,0.946,2.364,0.946,3.31,0L49.572-4.189c1.182-1.419,0.236-3.547-1.655-3.547H36.332c-1.182,0-2.128-0.946-2.128-2.128
	v-26.009c0-1.182-0.946-2.128-2.128-2.128H-8.119C-9.302-38-10.247-37.054-10.247-35.872z"/>
<path d="M-32,55.16V44.756c0-3.783,3.074-6.857,6.857-6.857h74.243c3.783,0,6.857,3.074,6.857,6.857V55.16
	c0,3.783-3.074,6.857-6.857,6.857h-74.243C-28.926,62.017-32,58.943-32,55.16z"/>
</svg>
