<?xml version="1.0" encoding="utf-8"?>
<!-- Generator: Adobe Illustrator 19.2.1, SVG Export Plug-In . SVG Version: 6.00 Build 0)  -->
<svg version="1.1" id="Layer_1" xmlns="http://www.w3.org/2000/svg" xmlns:xlink="http://www.w3.org/1999/xlink" x="0px" y="0px"
	 viewBox="-38 -38 100 100" enable-background="new -38 -38 100 100" xml:space="preserve">
<g>
	<g>
		<g>
			<rect x="16.636" y="10.788" width="9.089" height="1.818"/>
			<rect x="3.911" y="-9.815" width="14.543" height="2.424"/>
			<rect x="16.636" y="19.272" width="16.967" height="1.818"/>
			<rect x="16.636" y="6.546" width="9.089" height="1.818"/>
			<path d="M-38-38V62H62V-38H-38z M32.997,33.815c0,2.005-1.631,3.636-3.636,3.636H-6.997c-2.005,0-3.636-1.631-3.636-3.636v-40.6
				c0-2.005,1.631-3.636,3.636-3.636h7.272c0-1.671,1.359-3.03,3.03-3.03H19.06c1.671,0,3.03,1.359,3.03,3.03h7.272
				c2.005,0,3.636,1.631,3.636,3.636v5.236h-3.636v-5.236h-7.272c0,1.671-1.359,3.03-3.03,3.03H3.305c-1.671,0-3.03-1.359-3.03-3.03
				h-7.272v40.6h36.358v-4.024h3.636V33.815z M36.633,24.313H13V3.42h16.361v6.763h7.272V24.313z"/>
			<rect x="16.636" y="15.03" width="16.967" height="1.818"/>
		</g>
	</g>
</g>
</svg>
