<?xml version="1.0" encoding="utf-8"?>
<!-- Generator: Adobe Illustrator 19.2.1, SVG Export Plug-In . SVG Version: 6.00 Build 0)  -->
<svg version="1.1" id="Layer_1" xmlns="http://www.w3.org/2000/svg" xmlns:xlink="http://www.w3.org/1999/xlink" x="0px" y="0px"
	 viewBox="-38 -38 100 100" enable-background="new -38 -38 100 100" xml:space="preserve">
<path d="M12.436-29.782c10.618,0,21.196,3.553,29.255,10.671c16.23,14.335,16.091,37.696-0.309,52.181c0,0-1.017,0.971-3.065,2.449
	c-0.108,0.079-0.217,0.154-0.326,0.232c-4.35,3.086-12.969,8.164-26.354,11.565c-20.344,5.169-41.144,6.467-41.144,6.467
	s16.45-4.897,24.375-12.886c-4.56-1.768-8.841-4.26-12.568-7.552C-33.929,19.01-33.79-4.352-17.39-18.837
	C-9.133-26.128,1.672-29.782,12.436-29.782 M12.436-38c-13.249,0-25.773,4.619-35.266,13.002C-32.612-16.358-38-4.815-38,7.504
	c0,12.171,5.277,23.535,14.859,31.998c0.78,0.688,1.585,1.354,2.413,1.992c-4.456,2.166-8.925,3.75-11.125,4.409
	c-4.004,1.193-6.477,5.2-5.746,9.315c0.701,3.944,4.13,6.781,8.086,6.781c0.17,0,0.344-0.004,0.517-0.016
	c0.881-0.055,21.807-1.406,42.657-6.703c14.169-3.6,23.637-8.963,29.097-12.835l0.076-0.053c0.108-0.076,0.216-0.153,0.292-0.207
	c2.07-1.494,3.33-2.612,3.783-3.031c9.727-8.632,15.083-20.142,15.083-32.425c0-12.172-5.277-23.536-14.859-31.999
	C37.838-33.479,25.516-38,12.436-38L12.436-38z"/>
<circle cx="32.411" cy="8.955" r="7.182"/>
<circle cx="12.458" cy="8.955" r="7.182"/>
<circle cx="-7.493" cy="8.955" r="7.182"/>
</svg>
