<?xml version="1.0" encoding="utf-8"?>
<!-- Generator: Adobe Illustrator 19.2.1, SVG Export Plug-In . SVG Version: 6.00 Build 0)  -->
<svg version="1.1" id="Layer_1" xmlns="http://www.w3.org/2000/svg" xmlns:xlink="http://www.w3.org/1999/xlink" x="0px" y="0px"
	 viewBox="150 150 100 100" enable-background="new 150 150 100 100" xml:space="preserve">
<g>
	<g>
		<path d="M200,150c-27.614,0-50,22.386-50,50s22.386,50,50,50s50-22.386,50-50S227.614,150,200,150z M207.425,227.643
			c0,4.063-3.295,7.357-7.425,7.357c-4.101,0-7.426-3.348-7.426-7.357v-29.839c0-4.063,3.297-7.358,7.426-7.358
			c4.101,0,7.425,3.348,7.425,7.358V227.643z M200,184.851c-4.101,0-7.426-3.325-7.426-7.426c0-4.099,3.325-7.425,7.426-7.425
			c4.101,0,7.425,3.325,7.425,7.425C207.425,181.526,204.101,184.851,200,184.851z"/>
	</g>
</g>
</svg>
