<?xml version="1.0" encoding="utf-8"?>
<!-- Generator: Adobe Illustrator 19.2.1, SVG Export Plug-In . SVG Version: 6.00 Build 0)  -->
<svg version="1.1" id="Layer_1" xmlns="http://www.w3.org/2000/svg" xmlns:xlink="http://www.w3.org/1999/xlink" x="0px" y="0px"
	 viewBox="150 150 100 100" enable-background="new 150 150 100 100" xml:space="preserve">
<g>
	<g>
		<path fill-rule="evenodd" clip-rule="evenodd" d="M199.655,174.164c-0.465,0.058-1.353,0.121-2.219,0.284
			c-6.399,1.175-11.46,7.585-11.352,14.353c0.049,2.941,2.579,5.025,5.321,4.384c2.021-0.47,3.222-2.083,3.358-4.508
			c0.139-2.509,1.612-4.49,3.859-5.197c2.099-0.661,4.328,0.127,5.66,1.996c1.519,2.133,1.458,5.155-0.268,7.592
			c-0.892,1.263-1.898,2.446-2.941,3.573c-3.531,3.807-5.467,8.292-5.415,13.64c0.015,1.618,0.634,2.946,1.954,3.831
			c1.431,0.957,2.947,1.06,4.454,0.226c1.453-0.797,2.225-2.121,2.229-3.828c0.012-2.676,0.761-5.036,2.487-7.029
			c0.517-0.593,1.026-1.196,1.561-1.77c3.285-3.545,5.475-7.549,5.572-12.689C214.062,180.892,207.846,174.119,199.655,174.164z
			 M200.157,218.916c-3.005-0.008-5.315,2.346-5.33,5.435c-0.016,2.997,2.331,5.46,5.221,5.485c2.863,0.025,5.262-2.428,5.294-5.417
			C205.376,221.404,203.038,218.927,200.157,218.916z"/>
	</g>
</g>
<path d="M200,250c-27.57,0-50-22.429-50-50s22.43-50,50-50c27.57,0,50,22.43,50,50S227.57,250,200,250z M200,158.176
	c-23.062,0-41.824,18.762-41.824,41.824c0,23.061,18.762,41.824,41.824,41.824c23.062,0,41.824-18.762,41.824-41.824
	C241.824,176.938,223.062,158.176,200,158.176z"/>
</svg>
