<?xml version="1.0" encoding="utf-8"?>
<!-- Generator: Adobe Illustrator 19.2.1, SVG Export Plug-In . SVG Version: 6.00 Build 0)  -->
<svg version="1.1" id="Layer_1" xmlns="http://www.w3.org/2000/svg" xmlns:xlink="http://www.w3.org/1999/xlink" x="0px" y="0px"
	 viewBox="-38 -38 100 100" enable-background="new -38 -38 100 100" xml:space="preserve">
<path d="M-1.875,43.75h40.5C40.875,47.5,44.875,50,49.5,50C56.375,50,62,44.375,62,37.5S56.375,25,49.5,25
	c-4.625,0-8.75,2.5-10.875,6.25H11.5C8,36.5,3.625,41.125-1.875,43.75z M42,37.5c0-4.125,3.375-7.5,7.5-7.5s7.5,3.375,7.5,7.5
	S53.625,45,49.5,45S42,41.625,42,37.5z M62-12.5C62-19.375,56.375-25,49.5-25c-4.625,0-8.75,2.5-10.875,6.25H37
	c-16.375,0-23.875,15.125-30.625,28.5C-0.25,23.125-5,31.25-13,31.25h-1.625C-16.875,27.5-20.875,25-25.5,25
	C-32.375,25-38,30.625-38,37.5S-32.375,50-25.5,50c4.625,0,8.75-2.5,10.875-6.25H-13c16.375,0,23.875-15.125,30.625-28.5
	C24.25,1.875,29-6.25,37-6.25h1.625C40.875-2.5,44.875,0,49.5,0C56.375,0,62-5.625,62-12.5z M-18,37.5c0,4.125-3.375,7.5-7.5,7.5
	s-7.5-3.375-7.5-7.5s3.375-7.5,7.5-7.5S-18,33.375-18,37.5z M57-12.5C57-8.375,53.625-5,49.5-5S42-8.375,42-12.5s3.375-7.5,7.5-7.5
	S57-16.625,57-12.5z"/>
</svg>
