<?xml version="1.0" encoding="UTF-8"?>
<svg width="16px" height="16px" viewBox="0 0 16 16" version="1.1" xmlns="http://www.w3.org/2000/svg" xmlns:xlink="http://www.w3.org/1999/xlink">
    <!-- Generator: Sketch 44.1 (41455) - http://www.bohemiancoding.com/sketch -->
    <title>Safe-magenta@1.5x</title>
    <desc>Created with Sketch.</desc>
    <defs></defs>
    <g id="Mobile" stroke="none" stroke-width="1" fill="none" fill-rule="evenodd">
        <g id="Safe1-Expanded" transform="translate(-215.000000, -249.000000)">
            <g id="Safe-magenta" transform="translate(215.000000, 249.000000)">
                <g id="Group-3" transform="translate(0.000000, 0.005708)"></g>
                <path d="M14.8077287,3.46909715 L14.8077287,3.40973499 C14.8077287,2.8447243 14.8084778,2.27967794 14.8065871,1.71463157 C14.8064087,1.65858713 14.7974188,1.60018819 14.7800454,1.5469977 C14.7064848,1.32199944 14.5082423,1.18725734 14.2589498,1.18725734 C10.1609991,1.18722167 6.06301278,1.18722167 1.96502641,1.18722167 C1.85657633,1.18722167 1.74816191,1.1870433 1.63971182,1.18729302 C1.53300978,1.18754274 1.43354963,1.21387042 1.34475612,1.27412444 C1.1787276,1.38667708 1.10570216,1.54649826 1.10573784,1.74434832 C1.10591621,5.94079595 1.10588053,10.1372079 1.10588053,14.3336199 C1.10588053,14.3421817 1.10577351,14.3507436 1.10591621,14.3593054 C1.1119095,14.6630727 1.34211622,14.8890698 1.64570512,14.8890698 L14.2692241,14.8890698 C14.577843,14.8890698 14.807693,14.6595766 14.8077287,14.3514214 C14.8077644,13.8120606 14.8077287,13.2726997 14.8077287,12.7333389 L14.8077287,12.6772231 C14.8322013,12.6772231 14.8491823,12.6774729 14.8662347,12.6771875 C15.1801334,12.6725498 15.4219343,12.4332818 15.423611,12.1194543 C15.4258942,11.6814087 15.4256088,11.2433631 15.4236467,10.8053175 C15.4223624,10.5393651 15.2450608,10.3195039 14.988134,10.2628174 C14.9306626,10.2501173 14.8704086,10.250367 14.8109037,10.2445878 L14.8109037,5.90069796 C14.8222482,5.90005582 14.830703,5.8996634 14.8391221,5.89902126 C15.1762449,5.87347841 15.4222911,5.61665861 15.4237537,5.2842805 C15.4255018,4.88476322 15.4251094,4.48521026 15.4237894,4.08572865 C15.4231473,3.90375368 15.3545811,3.74974742 15.2194109,3.62731298 C15.1048248,3.52350056 14.9675855,3.47466235 14.8077287,3.46909715 M1.07023114e-05,15.1045073 L1.07023114e-05,0.874714176 C0.00272195452,0.867186884 0.0070742278,0.859802289 0.00793041271,0.852025276 C0.048706219,0.491821151 0.306738946,0.181632493 0.654064623,0.0784978863 C0.714639706,0.0605180032 0.777319576,0.0497443432 0.839071912,0.0356886409 L15.0688294,0.0356886409 C15.0767491,0.0381858469 15.0845261,0.0421100277 15.0925885,0.0430375614 C15.5651313,0.0975480005 15.9150612,0.490501199 15.9150612,0.96728917 C15.9150968,5.65179787 15.9150968,10.3363066 15.9150612,15.0208509 C15.9150612,15.4654606 15.6074411,15.8428241 15.1719997,15.9324382 C15.1377166,15.9395017 15.1032195,15.945602 15.0688294,15.9521661 L0.847633761,15.9521661 C0.84003512,15.9494905 0.832650525,15.9454593 0.824837838,15.9443177 C0.442444254,15.88995 0.18312725,15.6818257 0.0508823556,15.3193384 C0.025838947,15.2507009 0.0165636105,15.1762842 1.07023114e-05,15.1045073 M2.94526895,8.43710294 C2.94526895,8.61683042 2.9451976,8.79659358 2.94541165,8.97635673 C2.94541165,8.99340908 2.94537597,9.01081818 2.94869369,9.02740676 C2.97302361,9.14927041 3.07904784,9.22593463 3.20608428,9.21441181 C3.31931473,9.20417327 3.40882173,9.10289373 3.40892875,8.98313486 C3.40924982,8.6221459 3.40967791,8.26122829 3.40814391,7.90031068 C3.40800122,7.86270989 3.41870353,7.8436241 3.45262986,7.82528747 C3.69567935,7.69397011 3.80783957,7.40550715 3.72054438,7.14397833 C3.63250003,6.88023771 3.36843834,6.71788364 3.09335326,6.75840973 C2.85091024,6.79411977 2.65723408,6.98237343 2.61392539,7.22442404 C2.57040266,7.46772325 2.68812808,7.71209269 2.90788221,7.82814142 C2.9380984,7.84408787 2.94626783,7.86142561 2.94601811,7.89356822 C2.94448411,8.07472268 2.94526895,8.25591281 2.94526895,8.43710294 M8.18390766,4.13538024 C6.06395815,4.12863778 4.31787605,5.82841455 4.2741036,7.95756804 C4.22879715,10.1614593 5.99425043,11.9375793 8.15640272,11.9491734 C10.3202317,11.9607676 12.047121,10.232487 12.0877184,8.12195554 C12.1305633,5.8975158 10.3340734,4.12977936 8.18390766,4.13538024 M13.6390898,3.47037429 L13.4383501,3.47037429 C13.089205,3.47048131 12.8173307,3.74239137 12.8171523,4.09207155 C12.8169382,4.48730791 12.8169382,4.88257994 12.8171523,5.2778163 C12.8173307,5.62731812 13.0893477,5.89901413 13.4387069,5.89912115 C13.5039553,5.89915683 13.5692394,5.89912115 13.6366996,5.89912115 L13.6366996,10.2499318 C13.5470499,10.2499318 13.4589699,10.2499318 13.3709256,10.2499675 C13.0700836,10.2500031 12.8197922,10.4925175 12.8178658,10.7933952 C12.8150118,11.2399669 12.8147621,11.6866101 12.8179371,12.1331818 C12.8201133,12.4373415 13.0694414,12.6750399 13.3801295,12.6771446 C13.4654626,12.6777511 13.5507244,12.6772517 13.6390184,12.6772517 C13.6390184,12.8077485 13.6409449,12.9331796 13.638412,13.0585037 C13.6363785,13.1608534 13.6411232,13.2654864 13.6217164,13.3649465 C13.5621045,13.6706045 13.2869481,13.8907511 12.9761886,13.8930342 C12.9705164,13.8931056 12.9647728,13.8930699 12.9590649,13.8930699 C9.51167208,13.8930699 6.06431489,13.8930699 2.61692204,13.8930342 C2.28422285,13.8930342 2.01224145,13.6699624 1.94838432,13.3436489 C1.94075001,13.3046925 1.9368615,13.2643805 1.9368615,13.2247106 C1.93636206,9.76875587 1.93629071,6.31283683 1.93650476,2.85688213 C1.93650476,2.49271815 2.23806021,2.19187617 2.60168908,2.19187617 C6.05903509,2.19180482 9.51641677,2.19180482 12.9737628,2.1918405 C13.338997,2.19187617 13.6382693,2.49054201 13.6389828,2.8558119 C13.6394109,3.05829963 13.6390898,3.26082303 13.6390898,3.47037429" id="Fill-4" fill="#ED0295"></path>
                <path d="M10.33453,9.99597307 C10.2013576,10.098858 10.0755341,10.2041687 9.94161246,10.2978496 C9.57719876,10.5527787 9.18046408,10.7384638 8.74356006,10.8310744 C8.11240908,10.9648533 7.51443527,10.86946 6.94831868,10.5642301 C6.65896385,10.4082261 6.4009668,10.2094842 6.16398195,9.9827022 C6.14439672,9.96397316 6.12498986,9.94506574 6.10515491,9.92662209 C6.08531996,9.90817844 6.06505692,9.89019856 6.04151184,9.86886529 C6.05613833,9.85909051 6.0646645,9.85234805 6.07404686,9.84724662 C6.40992107,9.66580677 6.74597364,9.48479501 7.0814911,9.30267734 C7.1059994,9.2893708 7.11941296,9.29268852 7.13864145,9.3123451 C7.37234425,9.55122069 7.65973699,9.68096837 7.98883306,9.71903293 C8.38688769,9.76508854 8.7579725,9.66537867 9.11493026,9.49863666 C9.18581524,9.46553085 9.25406031,9.42668146 9.32469556,9.3929335 C9.33818048,9.38647644 9.36129747,9.38504946 9.37314136,9.39236271 C9.68718285,9.58632427 10.0003325,9.78167712 10.3135535,9.97692296 C10.3170852,9.97909909 10.3198321,9.98252383 10.33453,9.99597307" id="Fill-6" fill="#ED0295"></path>
                <path d="M5.44663813,8.90578212 C5.42619671,8.80557282 5.40332944,8.70900229 5.3870976,8.61136154 C5.33565516,8.30188637 5.32174216,7.99030641 5.35285021,7.67808432 C5.44478306,6.75611587 5.8780483,6.04815797 6.68075733,5.57436665 C6.95587808,5.41197691 7.24994192,5.29403744 7.55584965,5.2043164 C7.56398341,5.20192621 7.57233121,5.20010682 7.58071469,5.19864417 C7.58321189,5.19821608 7.58610152,5.1999998 7.592951,5.20185486 L7.592951,5.24252365 C7.592951,5.61624836 7.59259425,5.99000875 7.59362881,6.36373346 C7.59373583,6.39523393 7.58738579,6.4096107 7.55374486,6.41974222 C7.16539366,6.53654011 6.88738328,6.78704555 6.69624,7.1388662 C6.56941761,7.37231928 6.50085147,7.62475113 6.4736676,7.88763557 C6.4594692,8.02491055 6.45914813,8.16354116 6.45040791,8.30145828 C6.44937335,8.31790416 6.43909914,8.34091413 6.42593529,8.34851277 C6.10761288,8.53223578 5.78832726,8.7142821 5.46914866,8.89654246 C5.46447532,8.89921804 5.45915983,8.90068069 5.44663813,8.90578212" id="Fill-8" fill="#ED0295"></path>
                <path d="M10.9094296,8.90612817 C10.8628746,8.87958643 10.8198156,8.85504247 10.7767923,8.83046283 C10.5058811,8.67574308 10.2354694,8.5200958 9.96352366,8.36723112 C9.92378241,8.34489896 9.90840676,8.32167494 9.9090489,8.27501287 C9.91304443,7.97516978 9.87826192,7.68035677 9.77801693,7.39603203 C9.64634283,7.02245002 9.42294992,6.7215367 9.0706655,6.52885942 C8.98522538,6.48209032 8.8905456,6.45180278 8.79907651,6.41662785 C8.77906319,6.40895786 8.76825386,6.40382075 8.76828953,6.38006162 C8.76896734,5.99206716 8.76882465,5.6040727 8.76900302,5.21604256 C8.76900302,5.21076275 8.77096511,5.20548295 8.77331962,5.19353203 C8.8496271,5.21789763 8.92418653,5.24037248 8.99781844,5.26548724 C9.38934466,5.39912343 9.75375836,5.58298914 10.0737218,5.84865619 C10.5584295,6.25113444 10.8501031,6.7670572 10.9664016,7.38283252 C11.0616878,7.88755352 11.0398194,8.38977732 10.916065,8.88786289 C10.9150305,8.89196544 10.9131754,8.89581827 10.9094296,8.90612817" id="Fill-10" fill="#ED0295"></path>
            </g>
        </g>
    </g>
</svg>