<?xml version="1.0" encoding="utf-8"?>
<!-- Generator: Adobe Illustrator 19.2.1, SVG Export Plug-In . SVG Version: 6.00 Build 0)  -->
<svg version="1.1" id="Layer_1" xmlns="http://www.w3.org/2000/svg" xmlns:xlink="http://www.w3.org/1999/xlink" x="0px" y="0px"
	 viewBox="-38 -38 100 100" enable-background="new -38 -38 100 100" xml:space="preserve">
<path d="M58.998,53.259L41.439,35.603c-2.408,2.409-4.816,4.817-7.225,7.226l17.577,17.675C52.788,61.504,54.092,62,55.4,62
	c1.298,0,2.601-0.496,3.598-1.497C60.989,58.5,60.989,55.262,58.998,53.259z"/>
<path d="M8.95,53.644c-25.245,0-45.783-20.538-45.783-45.783c0-25.245,20.538-45.783,45.783-45.783S54.733-17.385,54.733,7.86
	C54.733,33.105,34.195,53.644,8.95,53.644z M8.95-28.014c-19.781,0-35.874,16.093-35.874,35.874
	c0,19.781,16.093,35.874,35.874,35.874c19.781,0,35.874-16.093,35.874-35.874C44.824-11.921,28.731-28.014,8.95-28.014z"/>
</svg>
