<?xml version="1.0" encoding="utf-8"?>
<!-- Generator: Adobe Illustrator 19.2.1, SVG Export Plug-In . SVG Version: 6.00 Build 0)  -->
<svg version="1.1" id="Layer_1" xmlns="http://www.w3.org/2000/svg" xmlns:xlink="http://www.w3.org/1999/xlink" x="0px" y="0px"
	 viewBox="-38 -38 100 100" enable-background="new -38 -38 100 100" xml:space="preserve">
<path d="M10.853,21.664c-5.329,0-9.664-4.335-9.664-9.664c0-5.329,4.335-9.664,9.664-9.664c5.328,0,9.664,4.335,9.664,9.664
	C20.517,17.329,16.182,21.664,10.853,21.664z M10.853,5.593c-3.532,0-6.407,2.874-6.407,6.407c0,3.532,2.875,6.406,6.407,6.406
	s6.406-2.874,6.406-6.406C17.259,8.468,14.386,5.593,10.853,5.593z"/>
<path d="M58.544-7.293l-6.605-11.356c-2.202-3.708-6.721-5.214-10.66-3.36l-3.94,1.854c-3.129-2.433-6.605-4.519-10.313-5.91
	l-0.348-4.403C26.331-34.756,22.739-38,18.452-38H5.242c-4.287,0-7.879,3.244-8.227,7.532l-0.348,4.287
	c-3.708,1.506-7.184,3.476-10.313,5.91l-3.94-1.854c-3.94-1.854-8.459-0.348-10.66,3.36l-6.605,11.356
	c-2.202,3.708-1.159,8.459,2.433,10.892l3.592,2.549c-0.232,1.97-0.463,3.94-0.463,5.91s0.116,3.94,0.463,5.91l-3.592,2.549
	c-3.476,2.433-4.519,7.184-2.433,10.892l6.605,11.356c2.202,3.708,6.721,5.214,10.66,3.36l3.94-1.854
	c3.129,2.433,6.605,4.519,10.313,5.91l0.348,4.403C-2.638,58.756,0.955,62,5.242,62h13.094c4.287,0,7.879-3.244,8.227-7.532
	l0.348-4.403c3.708-1.506,7.184-3.476,10.313-5.91l3.94,1.854c3.94,1.854,8.459,0.348,10.66-3.36l6.605-11.356
	c2.202-3.708,1.159-8.459-2.433-10.892l-3.592-2.549c0.232-1.97,0.464-3.94,0.464-5.91s-0.116-3.94-0.464-5.91l3.592-2.549
	C59.587,1.166,60.63-3.585,58.544-7.293z M52.055-2.079L44.871,3.02l0.464,2.202c0.464,2.202,0.695,4.519,0.695,6.837
	s-0.232,4.635-0.695,6.837l-0.464,2.202l7.184,5.098c0.579,0.348,0.695,1.159,0.348,1.738l-6.605,11.356
	c-0.348,0.579-1.043,0.811-1.738,0.579l-7.879-3.708l-1.738,1.506c-3.476,3.013-7.416,5.33-11.819,6.837l-2.202,0.695l-0.811,8.806
	c-0.116,0.695-0.579,1.159-1.275,1.159H5.242c-0.695,0-1.275-0.464-1.275-1.159l-0.811-8.806l-2.202-0.695
	c-4.403-1.506-8.343-3.708-11.819-6.837l-1.622-1.506l-8.111,3.708c-0.579,0.232-1.39,0-1.738-0.579l-6.605-11.356
	c-0.348-0.579-0.232-1.39,0.348-1.738l7.184-5.098l-0.463-2.202c-0.232-2.202-0.463-4.519-0.463-6.837s0.232-4.635,0.695-6.837
	l0.463-2.202l-7.184-5.098c-0.579-0.348-0.695-1.159-0.348-1.738l6.605-11.356c0.348-0.579,1.043-0.811,1.738-0.579l7.995,3.708
	l1.738-1.506c3.476-3.013,7.416-5.33,11.819-6.837l2.202-0.695l0.811-8.806c0.116-0.695,0.579-1.159,1.275-1.159h13.094
	c0.695,0,1.275,0.463,1.275,1.159l0.811,8.806l2.202,0.695c4.403,1.506,8.343,3.708,11.819,6.837l1.738,1.506l7.995-3.708
	c0.579-0.348,1.39,0,1.738,0.579l6.605,11.356C52.866-3.238,52.635-2.426,52.055-2.079z"/>
</svg>
