<?xml version="1.0" encoding="utf-8"?>
<!-- Generator: Adobe Illustrator 19.2.1, SVG Export Plug-In . SVG Version: 6.00 Build 0)  -->
<svg version="1.1" id="Layer_1" xmlns="http://www.w3.org/2000/svg" xmlns:xlink="http://www.w3.org/1999/xlink" x="0px" y="0px"
	 viewBox="-38 -38 100 100" enable-background="new -38 -38 100 100" xml:space="preserve">
<path d="M55.864-19.871h-2.775c-1.643,0-3.22,0.648-4.393,1.802l-8.476,8.36v-3.905c0-5.184-4.205-9.386-9.386-9.386h-59.447
	C-33.789-23-38-18.792-38-13.614V8.2v28.247c0,5.181,4.202,9.386,9.386,9.386h59.447c5.181,0,9.386-4.205,9.386-9.386v-3.82
	l8.476,8.36c1.173,1.155,2.75,1.802,4.393,1.802h2.775c3.454,0,6.258-2.8,6.258-6.258v-50.145
	C62.121-17.071,59.318-19.871,55.864-19.871z M-28.614,39.576c-1.727,0-3.129-1.405-3.129-3.129v-50.061
	c0-1.73,1.399-3.129,3.129-3.129h59.447c1.724,0,3.129,1.402,3.129,3.129v50.061c0,1.724-1.405,3.129-3.129,3.129H-28.614z
	 M55.864,36.531h-2.775h-0.354L40.22,24.016v-0.084l-3.129-3.129V2.03l15.644-15.644h0.354h2.775V36.531z"/>
</svg>
